<?xml version="1.0" encoding="UTF-8"?>
<svg id="Warstwa_1" xmlns="http://www.w3.org/2000/svg" version="1.1" xmlns:xlink="http://www.w3.org/1999/xlink" viewBox="0 0 100 33.2">
  <!-- Generator: Adobe Illustrator 30.3.0, SVG Export Plug-In . SVG Version: 2.1.3 Build 182)  -->
  <defs>
    <style>
      .st0 {
        fill: url(#Gradient_bez_nazwy);
      }

      .st1, .st2 {
        fill: #22a7f2;
      }

      .st2 {
        fill-rule: evenodd;
      }

      .st3 {
        fill: #0376b3;
      }
    </style>
    <linearGradient id="Gradient_bez_nazwy" data-name="Gradient bez nazwy" x1="11.25" y1="-33.62" x2="19.12" y2="-41.49" gradientTransform="translate(0 -9.86) scale(1 -1)" gradientUnits="userSpaceOnUse">
      <stop offset="0" stop-color="#22a7f2"/>
      <stop offset="1" stop-color="#0489cc"/>
    </linearGradient>
  </defs>
  <g>
    <path class="st3" d="M1.18,4.9c-.61-.61-.61-1.61,0-2.22L3.4.46c.61-.61,1.61-.61,2.22,0l8.63,8.63c.75.75.75,1.97,0,2.72l-1.72,1.72c-.75.75-1.97.75-2.72,0L1.18,4.9Z"/>
    <path class="st1" d="M33.24,4.92l-15.17,15.04c-.49.49-1.28.48-1.77,0l-2.58-2.57c-.49-.49-.49-1.28,0-1.77L28.79.47c.62-.61,1.61-.61,2.23,0l2.22,2.22c.61.62.61,1.62,0,2.23Z"/>
    <path class="st3" d="M28.99,12.85c.61-.61,1.61-.61,2.22,0l2.22,2.22c.61.61.61,1.61,0,2.22l-13.02,13.02-4.44-4.44,13.02-13.02Z"/>
    <path class="st0" d="M9.03,25.98l4.44-4.44,7.87,7.87-3.33,3.33c-.61.61-1.61.61-2.22,0l-6.76-6.76Z"/>
    <path class="st2" d="M9.11,26.07L.51,17.46c-.61-.61-.61-1.61,0-2.22l2.22-2.22c.61-.61,1.61-.61,2.22,0l8.61,8.61-4.44,4.44Z"/>
  </g>
  <g>
    <path d="M53.41,14.55l-4.54,9.69c-.2.43-.5.64-.91.64s-.72-.21-.93-.64l-4.57-9.67c-.11-.23-.12-.45-.04-.66.09-.21.26-.38.51-.49.21-.11.43-.13.66-.05.22.08.39.22.51.43l3.85,8.3,3.79-8.3c.11-.22.28-.37.53-.44.24-.07.48-.06.72.04.22.11.38.28.46.5.09.22.07.43-.04.65Z"/>
    <path d="M56.91,11.28c-.35,0-.66-.13-.91-.38-.25-.25-.38-.57-.38-.93s.13-.68.39-.92c.26-.25.57-.37.92-.37s.64.12.9.37c.26.25.39.56.39.92s-.13.68-.38.93-.57.38-.93.38ZM56.93,24.9c-.3,0-.54-.09-.72-.28s-.28-.42-.28-.7v-9.65c0-.3.09-.53.28-.71s.42-.27.72-.27.52.09.7.27.28.41.28.71v9.65c0,.28-.09.52-.28.7s-.42.28-.7.28Z"/>
    <path d="M67.84,24.98c-1.1,0-2.1-.25-2.98-.76-.88-.51-1.58-1.21-2.09-2.1-.51-.89-.77-1.89-.78-2.99v-9.82c0-.3.09-.53.28-.71.18-.18.42-.27.7-.27s.53.09.71.27c.18.18.27.41.27.71v5.94c.49-.62,1.1-1.12,1.82-1.48.72-.37,1.53-.55,2.42-.55,1.05,0,1.99.26,2.82.77.83.52,1.5,1.22,1.98,2.1.49.88.73,1.88.73,3s-.26,2.12-.77,3.01-1.22,1.59-2.1,2.11c-.88.52-1.88.77-3,.77ZM67.84,23.24c.75,0,1.42-.18,2.03-.54.6-.36,1.07-.86,1.42-1.48.35-.63.52-1.34.52-2.13s-.17-1.5-.52-2.12c-.35-.62-.82-1.11-1.42-1.47-.6-.36-1.28-.54-2.03-.54s-1.43.18-2.03.54c-.6.36-1.07.85-1.41,1.47-.34.62-.51,1.33-.51,2.12s.17,1.5.51,2.13c.34.63.81,1.12,1.41,1.48.6.36,1.28.54,2.03.54Z"/>
    <path d="M87.28,16.09c-.52-.89-1.21-1.59-2.09-2.11-.88-.51-1.87-.77-2.99-.77s-2.1.26-2.98.77c-.88.52-1.58,1.22-2.1,2.11-.52.89-.78,1.9-.78,3.02s.25,2.12.74,3c.48.88,1.15,1.58,1.98,2.1.83.52,1.77.77,2.82.77s1.96-.25,2.78-.75c.57-.35,1.06-.78,1.44-1.3v1.01c0,.29.1.52.28.7.18.19.42.28.7.28.3,0,.54-.09.72-.28.18-.18.28-.41.28-.7v-4.83c-.02-1.12-.28-2.13-.8-3.02ZM85.65,21.22c-.35.63-.82,1.12-1.41,1.48-.6.36-1.28.54-2.04.54s-1.43-.18-2.03-.54c-.6-.36-1.07-.85-1.42-1.48-.34-.63-.52-1.34-.52-2.11,0-.81.18-1.52.52-2.15.35-.62.83-1.11,1.43-1.47.61-.36,1.29-.54,2.04-.54s1.42.18,2.02.54c.59.36,1.06.86,1.41,1.48.34.63.52,1.34.52,2.14s-.18,1.48-.52,2.11Z"/>
    <path d="M95.44,24.98c-.93,0-1.82-.15-2.65-.44-.83-.29-1.49-.69-1.97-1.2-.18-.21-.26-.45-.23-.7.03-.25.16-.47.38-.66.24-.18.49-.26.74-.23s.47.14.64.34c.28.31.7.58,1.24.81s1.14.34,1.79.34c.92,0,1.6-.15,2.05-.46.45-.3.68-.68.69-1.14,0-.47-.22-.86-.66-1.18s-1.21-.57-2.31-.75c-1.43-.27-2.47-.69-3.12-1.25-.65-.57-.98-1.25-.98-2.06,0-.72.2-1.32.6-1.79s.93-.83,1.59-1.06,1.35-.35,2.09-.35c.93,0,1.75.15,2.46.46.71.3,1.27.73,1.7,1.26.18.21.27.43.24.66-.02.23-.14.42-.35.57-.21.13-.46.17-.73.13s-.51-.16-.69-.36c-.35-.37-.75-.63-1.18-.77s-.93-.22-1.5-.22c-.68,0-1.24.13-1.69.38s-.67.6-.67,1.04c0,.28.07.53.22.74s.43.41.84.58c.41.18,1,.34,1.76.48,1.06.2,1.9.46,2.51.78.61.33,1.06.71,1.33,1.15.27.44.4.93.4,1.49,0,.65-.18,1.23-.54,1.75s-.88.92-1.56,1.22c-.68.3-1.5.45-2.46.45Z"/>
  </g>
</svg>